{
	"asset":{
		"generator":"Khronos glTF Blender I/O v4.2.57",
		"version":"2.0"
	},
	"scene":0,
	"scenes":[
		{
			"name":"Scene",
			"nodes":[
				0,
				1
			]
		}
	],
	"nodes":[
		{
			"mesh":0,
			"name":"modular_wooden_pier_section_posts"
		},
		{
			"mesh":1,
			"name":"modular_wooden_pier_section_planks"
		}
	],
	"materials":[
		{
			"doubleSided":true,
			"name":"modular_wooden_pier_posts",
			"normalTexture":{
				"index":0
			},
			"pbrMetallicRoughness":{
				"baseColorTexture":{
					"index":1
				},
				"metallicRoughnessTexture":{
					"index":2
				}
			}
		},
		{
			"doubleSided":true,
			"name":"modular_wooden_pier_planks",
			"normalTexture":{
				"index":3
			},
			"pbrMetallicRoughness":{
				"baseColorTexture":{
					"index":4
				},
				"metallicFactor":0,
				"metallicRoughnessTexture":{
					"index":5
				}
			}
		}
	],
	"meshes":[
		{
			"name":"Plane.052",
			"primitives":[
				{
					"attributes":{
						"POSITION":0,
						"NORMAL":1,
						"TEXCOORD_0":2,
						"COLOR_0":3
					},
					"indices":4,
					"material":0
				}
			]
		},
		{
			"name":"Plane.052",
			"primitives":[
				{
					"attributes":{
						"POSITION":5,
						"NORMAL":6,
						"TEXCOORD_0":7,
						"COLOR_0":8
					},
					"indices":9,
					"material":1
				}
			]
		}
	],
	"textures":[
		{
			"sampler":0,
			"source":0
		},
		{
			"sampler":0,
			"source":1
		},
		{
			"sampler":0,
			"source":2
		},
		{
			"sampler":0,
			"source":3
		},
		{
			"sampler":0,
			"source":4
		},
		{
			"sampler":0,
			"source":5
		}
	],
	"images":[
		{
			"mimeType":"image/jpeg",
			"name":"modular_wooden_pier_planks_nor_gl_4k",
			"uri":"modular_wooden_pier_planks_nor_gl_4k.jpg"
		},
		{
			"mimeType":"image/jpeg",
			"name":"modular_wooden_pier_planks_diff_4k",
			"uri":"modular_wooden_pier_planks_diff_4k.jpg"
		},
		{
			"mimeType":"image/jpeg",
			"name":"modular_wooden_pier_planks_arm_4k",
			"uri":"modular_wooden_pier_planks_arm_4k.jpg"
		},
		{
			"mimeType":"image/jpeg",
			"name":"modular_wooden_pier_poles_nor_gl_4k",
			"uri":"modular_wooden_pier_poles_nor_gl_4k.jpg"
		},
		{
			"mimeType":"image/jpeg",
			"name":"modular_wooden_pier_poles_diff_4k",
			"uri":"modular_wooden_pier_poles_diff_4k.jpg"
		},
		{
			"mimeType":"image/jpeg",
			"name":"modular_wooden_pier_poles_arm_4k",
			"uri":"modular_wooden_pier_poles_arm_4k.jpg"
		}
	],
	"accessors":[
		{
			"bufferView":0,
			"componentType":5126,
			"count":35315,
			"max":[
				2.3057518005371094,
				6.284926414489746,
				3.181701183319092
			],
			"min":[
				-0.3601665496826172,
				0.7200589776039124,
				-9.182909965515137
			],
			"type":"VEC3"
		},
		{
			"bufferView":1,
			"componentType":5126,
			"count":35315,
			"type":"VEC3"
		},
		{
			"bufferView":2,
			"componentType":5126,
			"count":35315,
			"type":"VEC2"
		},
		{
			"bufferView":3,
			"componentType":5126,
			"count":35315,
			"type":"VEC3"
		},
		{
			"bufferView":4,
			"componentType":5123,
			"count":159504,
			"type":"SCALAR"
		},
		{
			"bufferView":5,
			"componentType":5126,
			"count":14002,
			"max":[
				2.5346384048461914,
				6.509909152984619,
				3.222659111022949
			],
			"min":[
				-0.5669245719909668,
				-1.005767583847046,
				-9.149618148803711
			],
			"type":"VEC3"
		},
		{
			"bufferView":6,
			"componentType":5126,
			"count":14002,
			"type":"VEC3"
		},
		{
			"bufferView":7,
			"componentType":5126,
			"count":14002,
			"type":"VEC2"
		},
		{
			"bufferView":8,
			"componentType":5126,
			"count":14002,
			"type":"VEC3"
		},
		{
			"bufferView":9,
			"componentType":5123,
			"count":70920,
			"type":"SCALAR"
		}
	],
	"bufferViews":[
		{
			"buffer":0,
			"byteLength":423780,
			"byteOffset":0,
			"target":34962
		},
		{
			"buffer":0,
			"byteLength":423780,
			"byteOffset":423780,
			"target":34962
		},
		{
			"buffer":0,
			"byteLength":282520,
			"byteOffset":847560,
			"target":34962
		},
		{
			"buffer":0,
			"byteLength":423780,
			"byteOffset":1130080,
			"target":34962
		},
		{
			"buffer":0,
			"byteLength":319008,
			"byteOffset":1553860,
			"target":34963
		},
		{
			"buffer":0,
			"byteLength":168024,
			"byteOffset":1872868,
			"target":34962
		},
		{
			"buffer":0,
			"byteLength":168024,
			"byteOffset":2040892,
			"target":34962
		},
		{
			"buffer":0,
			"byteLength":112016,
			"byteOffset":2208916,
			"target":34962
		},
		{
			"buffer":0,
			"byteLength":168024,
			"byteOffset":2320932,
			"target":34962
		},
		{
			"buffer":0,
			"byteLength":141840,
			"byteOffset":2488956,
			"target":34963
		}
	],
	"samplers":[
		{
			"magFilter":9729,
			"minFilter":9987
		}
	],
	"buffers":[
		{
			"byteLength":2630796,
			"uri":"pier.bin"
		}
	]
}
