{
	"asset":{
		"generator":"Khronos glTF Blender I/O v4.2.57",
		"version":"2.0"
	},
	"scene":0,
	"scenes":[
		{
			"name":"Scene",
			"nodes":[
				0
			]
		}
	],
	"nodes":[
		{
			"mesh":0,
			"name":"rusted_spade_01",
			"rotation":[
				-0.18672844767570496,
				0.8962964415550232,
				0.14938275516033173,
				0.3734568953514099
			]
		}
	],
	"materials":[
		{
			"doubleSided":true,
			"name":"rusted_spade_01",
			"normalTexture":{
				"index":0
			},
			"pbrMetallicRoughness":{
				"baseColorTexture":{
					"index":1
				},
				"metallicRoughnessTexture":{
					"index":2
				}
			}
		}
	],
	"meshes":[
		{
			"name":"Cylinder.001",
			"primitives":[
				{
					"attributes":{
						"POSITION":0,
						"NORMAL":1,
						"TEXCOORD_0":2
					},
					"indices":3,
					"material":0
				}
			]
		}
	],
	"textures":[
		{
			"sampler":0,
			"source":0
		},
		{
			"sampler":0,
			"source":1
		},
		{
			"sampler":0,
			"source":2
		}
	],
	"images":[
		{
			"mimeType":"image/jpeg",
			"name":"rusted_spade_01_nor_gl_4k",
			"uri":"rusted_spade_01_nor_gl_4k.jpg"
		},
		{
			"mimeType":"image/jpeg",
			"name":"rusted_spade_01_diff_4k",
			"uri":"rusted_spade_01_diff_4k.jpg"
		},
		{
			"mimeType":"image/jpeg",
			"name":"rusted_spade_01_arm_4k",
			"uri":"rusted_spade_01_arm_4k.jpg"
		}
	],
	"accessors":[
		{
			"bufferView":0,
			"componentType":5126,
			"count":8698,
			"max":[
				0.08405742049217224,
				0.5977030396461487,
				0.022568460553884506
			],
			"min":[
				-0.08405739068984985,
				-0.5032017230987549,
				-0.022995803505182266
			],
			"type":"VEC3"
		},
		{
			"bufferView":1,
			"componentType":5126,
			"count":8698,
			"type":"VEC3"
		},
		{
			"bufferView":2,
			"componentType":5126,
			"count":8698,
			"type":"VEC2"
		},
		{
			"bufferView":3,
			"componentType":5123,
			"count":34308,
			"type":"SCALAR"
		},
		{
			"bufferView":4,
			"componentType":5126,
			"count":24,
			"max":[
				1,
				1,
				1
			],
			"min":[
				-1,
				-1,
				-1
			],
			"type":"VEC3"
		},
		{
			"bufferView":5,
			"componentType":5126,
			"count":24,
			"type":"VEC3"
		},
		{
			"bufferView":6,
			"componentType":5126,
			"count":24,
			"type":"VEC2"
		},
		{
			"bufferView":7,
			"componentType":5123,
			"count":36,
			"type":"SCALAR"
		}
	],
	"bufferViews":[
		{
			"buffer":0,
			"byteLength":104376,
			"byteOffset":0,
			"target":34962
		},
		{
			"buffer":0,
			"byteLength":104376,
			"byteOffset":104376,
			"target":34962
		},
		{
			"buffer":0,
			"byteLength":69584,
			"byteOffset":208752,
			"target":34962
		},
		{
			"buffer":0,
			"byteLength":68616,
			"byteOffset":278336,
			"target":34963
		},
		{
			"buffer":0,
			"byteLength":288,
			"byteOffset":346952,
			"target":34962
		},
		{
			"buffer":0,
			"byteLength":288,
			"byteOffset":347240,
			"target":34962
		},
		{
			"buffer":0,
			"byteLength":192,
			"byteOffset":347528,
			"target":34962
		},
		{
			"buffer":0,
			"byteLength":72,
			"byteOffset":347720,
			"target":34963
		}
	],
	"samplers":[
		{
			"magFilter":9729,
			"minFilter":9987
		}
	],
	"buffers":[
		{
			"byteLength":347792,
			"uri":"shovel_rotated.bin"
		}
	]
}
