{
	"asset":{
		"generator":"Khronos glTF Blender I/O v4.2.57",
		"version":"2.0"
	},
	"scene":0,
	"scenes":[
		{
			"name":"Scene",
			"nodes":[
				0
			]
		}
	],
	"nodes":[
		{
			"mesh":0,
			"name":"Cube"
		}
	],
	"materials":[
		{
			"doubleSided":true,
			"name":"rusted_spade_01",
			"normalTexture":{
				"index":0
			},
			"pbrMetallicRoughness":{
				"baseColorTexture":{
					"index":1
				},
				"metallicRoughnessTexture":{
					"index":2
				}
			}
		}
	],
	"meshes":[
		{
			"name":"Cube",
			"primitives":[
				{
					"attributes":{
						"POSITION":4,
						"NORMAL":5,
						"TEXCOORD_0":6
					},
					"indices":7,
					"material":0
				}
			]
		}
	],
	"textures":[
		{
			"sampler":0,
			"source":0
		},
		{
			"sampler":0,
			"source":1
		},
		{
			"sampler":0,
			"source":2
		}
	],
	"images":[
		{
			"mimeType":"image/jpeg",
			"name":"rusted_spade_01_nor_gl_4k",
			"uri":"rusted_spade_01_nor_gl_4k.jpg"
		},
		{
			"mimeType":"image/jpeg",
			"name":"rusted_spade_01_diff_4k",
			"uri":"rusted_spade_01_diff_4k.jpg"
		},
		{
			"mimeType":"image/jpeg",
			"name":"rusted_spade_01_arm_4k",
			"uri":"rusted_spade_01_arm_4k.jpg"
		}
	],
	"accessors":[
		{
			"bufferView":0,
			"componentType":5126,
			"count":24,
			"max":[
				1,
				1,
				1
			],
			"min":[
				-1,
				-1,
				-1
			],
			"type":"VEC3"
		},
		{
			"bufferView":1,
			"componentType":5126,
			"count":24,
			"type":"VEC3"
		},
		{
			"bufferView":2,
			"componentType":5126,
			"count":24,
			"type":"VEC2"
		},
		{
			"bufferView":3,
			"componentType":5123,
			"count":36,
			"type":"SCALAR"
		},
		{
			"bufferView":4,
			"componentType":5126,
			"count":9496,
			"max":[
				0.2862379550933838,
				0.5381409525871277,
				0.13455379009246826
			],
			"min":[
				-0.3151088356971741,
				-0.4510711431503296,
				-0.13695555925369263
			],
			"type":"VEC3"
		},
		{
			"bufferView":5,
			"componentType":5126,
			"count":9496,
			"type":"VEC3"
		},
		{
			"bufferView":6,
			"componentType":5126,
			"count":9496,
			"type":"VEC2"
		},
		{
			"bufferView":7,
			"componentType":5123,
			"count":34308,
			"type":"SCALAR"
		}
	],
	"bufferViews":[
		{
			"buffer":0,
			"byteLength":288,
			"byteOffset":0,
			"target":34962
		},
		{
			"buffer":0,
			"byteLength":288,
			"byteOffset":288,
			"target":34962
		},
		{
			"buffer":0,
			"byteLength":192,
			"byteOffset":576,
			"target":34962
		},
		{
			"buffer":0,
			"byteLength":72,
			"byteOffset":768,
			"target":34963
		},
		{
			"buffer":0,
			"byteLength":113952,
			"byteOffset":840,
			"target":34962
		},
		{
			"buffer":0,
			"byteLength":113952,
			"byteOffset":114792,
			"target":34962
		},
		{
			"buffer":0,
			"byteLength":75968,
			"byteOffset":228744,
			"target":34962
		},
		{
			"buffer":0,
			"byteLength":68616,
			"byteOffset":304712,
			"target":34963
		}
	],
	"samplers":[
		{
			"magFilter":9729,
			"minFilter":9987
		}
	],
	"buffers":[
		{
			"byteLength":373328,
			"uri":"shovel_rotated_baked.bin"
		}
	]
}
