{
	"asset":{
		"generator":"Khronos glTF Blender I/O v4.2.57",
		"version":"2.0"
	},
	"scene":0,
	"scenes":[
		{
			"name":"Scene",
			"nodes":[
				0
			]
		}
	],
	"nodes":[
		{
			"mesh":0,
			"name":"Cube",
			"translation":[
				1,
				-1,
				1
			]
		}
	],
	"materials":[
		{
			"doubleSided":true,
			"name":"Material.001",
			"pbrMetallicRoughness":{
				"baseColorTexture":{
					"index":0
				},
				"metallicFactor":0,
				"roughnessFactor":0.5
			}
		},
		{
			"doubleSided":true,
			"name":"Material.002",
			"pbrMetallicRoughness":{
				"baseColorTexture":{
					"index":1
				},
				"metallicFactor":0,
				"roughnessFactor":0.5
			}
		},
		{
			"doubleSided":true,
			"name":"Material.003",
			"pbrMetallicRoughness":{
				"baseColorTexture":{
					"index":2
				},
				"metallicFactor":0,
				"roughnessFactor":0.5
			}
		},
		{
			"doubleSided":true,
			"name":"Material.004",
			"pbrMetallicRoughness":{
				"baseColorTexture":{
					"index":3
				},
				"metallicFactor":0,
				"roughnessFactor":0.5
			}
		}
	],
	"meshes":[
		{
			"name":"Cube.001",
			"primitives":[
				{
					"attributes":{
						"POSITION":0,
						"NORMAL":1,
						"TEXCOORD_0":2
					},
					"indices":3,
					"material":0
				},
				{
					"attributes":{
						"POSITION":4,
						"NORMAL":5,
						"TEXCOORD_0":6
					},
					"indices":7,
					"material":1
				},
				{
					"attributes":{
						"POSITION":8,
						"NORMAL":9,
						"TEXCOORD_0":10
					},
					"indices":11,
					"material":2
				},
				{
					"attributes":{
						"POSITION":12,
						"NORMAL":13,
						"TEXCOORD_0":14
					},
					"indices":15,
					"material":3
				}
			]
		}
	],
	"textures":[
		{
			"sampler":0,
			"source":0
		},
		{
			"sampler":0,
			"source":1
		},
		{
			"sampler":0,
			"source":2
		},
		{
			"sampler":0,
			"source":3
		}
	],
	"images":[
		{
			"mimeType":"image/png",
			"name":"water_bottom_right",
			"uri":"water_bottom_right.png"
		},
		{
			"mimeType":"image/png",
			"name":"water_bottom_left",
			"uri":"water_bottom_left.png"
		},
		{
			"mimeType":"image/png",
			"name":"water_upper_left",
			"uri":"water_upper_left.png"
		},
		{
			"mimeType":"image/png",
			"name":"water_upper_right",
			"uri":"water_upper_right.png"
		}
	],
	"accessors":[
		{
			"bufferView":0,
			"componentType":5126,
			"count":16641,
			"max":[
				1,
				1.1249059438705444,
				1
			],
			"min":[
				-1.0000027418136597,
				1,
				-1.0058181285858154
			],
			"type":"VEC3"
		},
		{
			"bufferView":1,
			"componentType":5126,
			"count":16641,
			"type":"VEC3"
		},
		{
			"bufferView":2,
			"componentType":5126,
			"count":16641,
			"type":"VEC2"
		},
		{
			"bufferView":3,
			"componentType":5123,
			"count":98304,
			"type":"SCALAR"
		},
		{
			"bufferView":4,
			"componentType":5126,
			"count":16641,
			"max":[
				-0.9760475754737854,
				1.1423920392990112,
				1
			],
			"min":[
				-3,
				1,
				-1.0005269050598145
			],
			"type":"VEC3"
		},
		{
			"bufferView":5,
			"componentType":5126,
			"count":16641,
			"type":"VEC3"
		},
		{
			"bufferView":6,
			"componentType":5126,
			"count":16641,
			"type":"VEC2"
		},
		{
			"bufferView":7,
			"componentType":5123,
			"count":98304,
			"type":"SCALAR"
		},
		{
			"bufferView":8,
			"componentType":5126,
			"count":16641,
			"max":[
				-0.9897217154502869,
				1.084223747253418,
				-0.9836939573287964
			],
			"min":[
				-3,
				1,
				-3
			],
			"type":"VEC3"
		},
		{
			"bufferView":9,
			"componentType":5126,
			"count":16641,
			"type":"VEC3"
		},
		{
			"bufferView":10,
			"componentType":5126,
			"count":16641,
			"type":"VEC2"
		},
		{
			"bufferView":11,
			"componentType":5123,
			"count":98304,
			"type":"SCALAR"
		},
		{
			"bufferView":12,
			"componentType":5126,
			"count":16641,
			"max":[
				1,
				1.0595132112503052,
				-0.9959014058113098
			],
			"min":[
				-1.0011669397354126,
				1,
				-3
			],
			"type":"VEC3"
		},
		{
			"bufferView":13,
			"componentType":5126,
			"count":16641,
			"type":"VEC3"
		},
		{
			"bufferView":14,
			"componentType":5126,
			"count":16641,
			"type":"VEC2"
		},
		{
			"bufferView":15,
			"componentType":5123,
			"count":98304,
			"type":"SCALAR"
		}
	],
	"bufferViews":[
		{
			"buffer":0,
			"byteLength":199692,
			"byteOffset":0,
			"target":34962
		},
		{
			"buffer":0,
			"byteLength":199692,
			"byteOffset":199692,
			"target":34962
		},
		{
			"buffer":0,
			"byteLength":133128,
			"byteOffset":399384,
			"target":34962
		},
		{
			"buffer":0,
			"byteLength":196608,
			"byteOffset":532512,
			"target":34963
		},
		{
			"buffer":0,
			"byteLength":199692,
			"byteOffset":729120,
			"target":34962
		},
		{
			"buffer":0,
			"byteLength":199692,
			"byteOffset":928812,
			"target":34962
		},
		{
			"buffer":0,
			"byteLength":133128,
			"byteOffset":1128504,
			"target":34962
		},
		{
			"buffer":0,
			"byteLength":196608,
			"byteOffset":1261632,
			"target":34963
		},
		{
			"buffer":0,
			"byteLength":199692,
			"byteOffset":1458240,
			"target":34962
		},
		{
			"buffer":0,
			"byteLength":199692,
			"byteOffset":1657932,
			"target":34962
		},
		{
			"buffer":0,
			"byteLength":133128,
			"byteOffset":1857624,
			"target":34962
		},
		{
			"buffer":0,
			"byteLength":196608,
			"byteOffset":1990752,
			"target":34963
		},
		{
			"buffer":0,
			"byteLength":199692,
			"byteOffset":2187360,
			"target":34962
		},
		{
			"buffer":0,
			"byteLength":199692,
			"byteOffset":2387052,
			"target":34962
		},
		{
			"buffer":0,
			"byteLength":133128,
			"byteOffset":2586744,
			"target":34962
		},
		{
			"buffer":0,
			"byteLength":196608,
			"byteOffset":2719872,
			"target":34963
		}
	],
	"samplers":[
		{
			"magFilter":9729,
			"minFilter":9987,
			"wrapS":33071,
			"wrapT":33071
		}
	],
	"buffers":[
		{
			"byteLength":2916480,
			"uri":"ocean_merged.bin"
		}
	]
}
