{
  "asset": {
    "generator": "Khronos glTF Blender I/O v3.5.30",
    "version": "2.0"
  },
  "scene": 0,
  "scenes": [
    {
      "name": "Scene",
      "nodes": [
        0
      ]
    }
  ],
  "nodes": [
    {
      "mesh": 0,
      "name": "coast_rocks_03"
    }
  ],
  "materials": [
    {
      "doubleSided": true,
      "name": "coast_rocks_03",
      "normalTexture": {
        "index": 0
      },
      "pbrMetallicRoughness": {
        "baseColorTexture": {
          "index": 1
        },
        "metallicFactor": 0,
        "metallicRoughnessTexture": {
          "index": 2
        }
      }
    }
  ],
  "meshes": [
    {
      "name": "Plane1.001",
      "primitives": [
        {
          "attributes": {
            "POSITION": 0,
            "TEXCOORD_0": 1,
            "NORMAL": 2
          },
          "indices": 3,
          "material": 0
        }
      ]
    }
  ],
  "textures": [
    {
      "sampler": 0,
      "source": 0
    },
    {
      "sampler": 0,
      "source": 1
    },
    {
      "sampler": 0,
      "source": 2
    }
  ],
  "images": [
    {
      "mimeType": "image/jpeg",
      "name": "coast_rocks_03_nor_gl",
      "uri": "textures/coast_rocks_03_nor_gl_4k.jpg"
    },
    {
      "mimeType": "image/jpeg",
      "name": "coast_rocks_03_diff",
      "uri": "textures/coast_rocks_03_diff_4k.jpg"
    },
    {
      "mimeType": "image/jpeg",
      "name": "coast_rocks_03_rough",
      "uri": "textures/coast_rocks_03_arm_4k.jpg"
    }
  ],
  "accessors": [
    {
      "bufferView": 0,
      "componentType": 5126,
      "count": 415339,
      "max": [
        11.475523948669434,
        1.7569206953048706,
        13.357389450073242
      ],
      "min": [
        -9.645445823669434,
        -1.4408175945281982,
        -14.913028717041016
      ],
      "type": "VEC3"
    },
    {
      "bufferView": 1,
      "componentType": 5126,
      "count": 415339,
      "type": "VEC2"
    },
    {
      "bufferView": 2,
      "componentType": 5126,
      "count": 415339,
      "type": "VEC3"
    },
    {
      "bufferView": 3,
      "componentType": 5125,
      "count": 2440392,
      "type": "SCALAR"
    }
  ],
  "bufferViews": [
    {
      "buffer": 0,
      "byteLength": 4984068,
      "byteOffset": 0,
      "target": 34962
    },
    {
      "buffer": 0,
      "byteLength": 3322712,
      "byteOffset": 4984068,
      "target": 34962
    },
    {
      "buffer": 0,
      "byteLength": 4984068,
      "byteOffset": 8306780,
      "target": 34962
    },
    {
      "buffer": 0,
      "byteLength": 9761568,
      "byteOffset": 13290848,
      "target": 34963
    }
  ],
  "samplers": [
    {
      "magFilter": 9729,
      "minFilter": 9987
    }
  ],
  "buffers": [
    {
      "byteLength": 23052416,
      "uri": "coast_rocks_03.bin"
    }
  ]
}