{
	"asset":{
		"generator":"Khronos glTF Blender I/O v4.2.57",
		"version":"2.0"
	},
	"scene":0,
	"scenes":[
		{
			"name":"Scene",
			"nodes":[
				0
			]
		}
	],
	"nodes":[
		{
			"mesh":0,
			"name":"modular_wooden_pier_section_planks.001",
			"rotation":[
				0.5013285875320435,
				-0.5013285875320435,
				-0.49866801500320435,
				0.4986678957939148
			],
			"translation":[
				1.0800834894180298,
				1.133683204650879,
				10.104188919067383
			]
		}
	],
	"materials":[
		{
			"doubleSided":true,
			"name":"modular_wooden_pier_posts.001",
			"normalTexture":{
				"index":0
			},
			"pbrMetallicRoughness":{
				"baseColorTexture":{
					"index":1
				},
				"metallicRoughnessTexture":{
					"index":2
				}
			}
		},
		{
			"doubleSided":true,
			"name":"modular_wooden_pier_posts",
			"normalTexture":{
				"index":3
			},
			"pbrMetallicRoughness":{
				"baseColorTexture":{
					"index":4
				},
				"metallicRoughnessTexture":{
					"index":5
				}
			}
		},
		{
			"doubleSided":true,
			"name":"modular_wooden_pier_posts.002",
			"normalTexture":{
				"index":6
			},
			"pbrMetallicRoughness":{
				"baseColorTexture":{
					"index":7
				},
				"metallicRoughnessTexture":{
					"index":8
				}
			}
		}
	],
	"meshes":[
		{
			"name":"Plane.002",
			"primitives":[
				{
					"attributes":{
						"POSITION":0,
						"NORMAL":1,
						"TEXCOORD_0":2,
						"COLOR_0":3
					},
					"indices":4,
					"material":0
				},
				{
					"attributes":{
						"POSITION":5,
						"NORMAL":6,
						"TEXCOORD_0":7,
						"COLOR_0":8
					},
					"indices":9,
					"material":1
				},
				{
					"attributes":{
						"POSITION":10,
						"NORMAL":11,
						"TEXCOORD_0":12,
						"COLOR_0":13
					},
					"indices":14,
					"material":2
				}
			]
		}
	],
	"textures":[
		{
			"sampler":0,
			"source":0
		},
		{
			"sampler":0,
			"source":1
		},
		{
			"sampler":0,
			"source":2
		},
		{
			"sampler":0,
			"source":0
		},
		{
			"sampler":0,
			"source":1
		},
		{
			"sampler":0,
			"source":2
		},
		{
			"sampler":0,
			"source":0
		},
		{
			"sampler":0,
			"source":1
		},
		{
			"sampler":0,
			"source":2
		}
	],
	"images":[
		{
			"mimeType":"image/jpeg",
			"name":"modular_wooden_pier_planks_nor_gl_4k",
			"uri":"modular_wooden_pier_planks_nor_gl_4k.jpg"
		},
		{
			"mimeType":"image/jpeg",
			"name":"modular_wooden_pier_planks_diff_4k",
			"uri":"modular_wooden_pier_planks_diff_4k.jpg"
		},
		{
			"mimeType":"image/jpeg",
			"name":"modular_wooden_pier_planks_arm_4k",
			"uri":"modular_wooden_pier_planks_arm_4k.jpg"
		}
	],
	"accessors":[
		{
			"bufferView":0,
			"componentType":5126,
			"count":12602,
			"max":[
				1.1858484745025635,
				0.2285454273223877,
				6.056446552276611
			],
			"min":[
				-1.181357741355896,
				0.15229296684265137,
				-1.7437779903411865
			],
			"type":"VEC3"
		},
		{
			"bufferView":1,
			"componentType":5126,
			"count":12602,
			"type":"VEC3"
		},
		{
			"bufferView":2,
			"componentType":5126,
			"count":12602,
			"type":"VEC2"
		},
		{
			"bufferView":3,
			"componentType":5126,
			"count":12602,
			"type":"VEC3"
		},
		{
			"bufferView":4,
			"componentType":5123,
			"count":55917,
			"type":"SCALAR"
		},
		{
			"bufferView":5,
			"componentType":5126,
			"count":19825,
			"max":[
				1.205989956855774,
				-4.064947605133057,
				9.069314956665039
			],
			"min":[
				-1.185847282409668,
				-16.45267677307129,
				8.615049362182617
			],
			"type":"VEC3"
		},
		{
			"bufferView":6,
			"componentType":5126,
			"count":19825,
			"type":"VEC3"
		},
		{
			"bufferView":7,
			"componentType":5126,
			"count":19825,
			"type":"VEC2"
		},
		{
			"bufferView":8,
			"componentType":5126,
			"count":19825,
			"type":"VEC3"
		},
		{
			"bufferView":9,
			"componentType":5123,
			"count":87873,
			"type":"SCALAR"
		},
		{
			"bufferView":10,
			"componentType":5126,
			"count":7815,
			"max":[
				1.3547545671463013,
				0.15317654609680176,
				9.036270141601562
			],
			"min":[
				-1.0309841632843018,
				-4.034524917602539,
				6.050950050354004
			],
			"type":"VEC3"
		},
		{
			"bufferView":11,
			"componentType":5126,
			"count":7815,
			"type":"VEC3"
		},
		{
			"bufferView":12,
			"componentType":5126,
			"count":7815,
			"type":"VEC2"
		},
		{
			"bufferView":13,
			"componentType":5126,
			"count":7815,
			"type":"VEC3"
		},
		{
			"bufferView":14,
			"componentType":5123,
			"count":34572,
			"type":"SCALAR"
		}
	],
	"bufferViews":[
		{
			"buffer":0,
			"byteLength":151224,
			"byteOffset":0,
			"target":34962
		},
		{
			"buffer":0,
			"byteLength":151224,
			"byteOffset":151224,
			"target":34962
		},
		{
			"buffer":0,
			"byteLength":100816,
			"byteOffset":302448,
			"target":34962
		},
		{
			"buffer":0,
			"byteLength":151224,
			"byteOffset":403264,
			"target":34962
		},
		{
			"buffer":0,
			"byteLength":111834,
			"byteOffset":554488,
			"target":34963
		},
		{
			"buffer":0,
			"byteLength":237900,
			"byteOffset":666324,
			"target":34962
		},
		{
			"buffer":0,
			"byteLength":237900,
			"byteOffset":904224,
			"target":34962
		},
		{
			"buffer":0,
			"byteLength":158600,
			"byteOffset":1142124,
			"target":34962
		},
		{
			"buffer":0,
			"byteLength":237900,
			"byteOffset":1300724,
			"target":34962
		},
		{
			"buffer":0,
			"byteLength":175746,
			"byteOffset":1538624,
			"target":34963
		},
		{
			"buffer":0,
			"byteLength":93780,
			"byteOffset":1714372,
			"target":34962
		},
		{
			"buffer":0,
			"byteLength":93780,
			"byteOffset":1808152,
			"target":34962
		},
		{
			"buffer":0,
			"byteLength":62520,
			"byteOffset":1901932,
			"target":34962
		},
		{
			"buffer":0,
			"byteLength":93780,
			"byteOffset":1964452,
			"target":34962
		},
		{
			"buffer":0,
			"byteLength":69144,
			"byteOffset":2058232,
			"target":34963
		}
	],
	"samplers":[
		{
			"magFilter":9729,
			"minFilter":9987
		}
	],
	"buffers":[
		{
			"byteLength":2127376,
			"uri":"fence_merged.bin"
		}
	]
}
