{
	"asset":{
		"generator":"Khronos glTF Blender I/O v4.2.57",
		"version":"2.0"
	},
	"scene":0,
	"scenes":[
		{
			"name":"Scene",
			"nodes":[
				0,
				1,
				2
			]
		}
	],
	"nodes":[
		{
			"mesh":0,
			"name":"modular_wooden_pier_section_planks",
			"rotation":[
				-0.007495342753827572,
				-0.00749529805034399,
				0.7070671319961548,
				0.7070670127868652
			],
			"translation":[
				-7.632003307342529,
				1.133683204650879,
				-0.060168080031871796
			]
		},
		{
			"mesh":1,
			"name":"modular_wooden_pier_section_planks_short",
			"rotation":[
				-0.07790146768093109,
				0.0779014527797699,
				-0.7028024792671204,
				0.7028025388717651
			],
			"translation":[
				-6.415319919586182,
				0.9544154405593872,
				8.064311981201172
			]
		},
		{
			"mesh":2,
			"name":"modular_wooden_pier_section_planks.001",
			"rotation":[
				0.5013285875320435,
				-0.5013285875320435,
				-0.49866801500320435,
				0.4986678957939148
			],
			"translation":[
				1.0800834894180298,
				1.133683204650879,
				10.104188919067383
			]
		}
	],
	"materials":[
		{
			"doubleSided":true,
			"name":"modular_wooden_pier_posts",
			"normalTexture":{
				"index":0
			},
			"pbrMetallicRoughness":{
				"baseColorTexture":{
					"index":1
				},
				"metallicRoughnessTexture":{
					"index":2
				}
			}
		},
		{
			"doubleSided":true,
			"name":"modular_wooden_pier_posts.002",
			"normalTexture":{
				"index":3
			},
			"pbrMetallicRoughness":{
				"baseColorTexture":{
					"index":4
				},
				"metallicRoughnessTexture":{
					"index":5
				}
			}
		},
		{
			"doubleSided":true,
			"name":"modular_wooden_pier_posts.001",
			"normalTexture":{
				"index":6
			},
			"pbrMetallicRoughness":{
				"baseColorTexture":{
					"index":7
				},
				"metallicRoughnessTexture":{
					"index":8
				}
			}
		}
	],
	"meshes":[
		{
			"name":"Plane.052",
			"primitives":[
				{
					"attributes":{
						"POSITION":0,
						"NORMAL":1,
						"TEXCOORD_0":2,
						"COLOR_0":3
					},
					"indices":4,
					"material":0
				}
			]
		},
		{
			"name":"Plane.003",
			"primitives":[
				{
					"attributes":{
						"POSITION":5,
						"NORMAL":6,
						"TEXCOORD_0":7,
						"COLOR_0":8
					},
					"indices":9,
					"material":1
				}
			]
		},
		{
			"name":"Plane.002",
			"primitives":[
				{
					"attributes":{
						"POSITION":10,
						"NORMAL":11,
						"TEXCOORD_0":12,
						"COLOR_0":13
					},
					"indices":14,
					"material":2
				}
			]
		}
	],
	"textures":[
		{
			"sampler":0,
			"source":0
		},
		{
			"sampler":0,
			"source":1
		},
		{
			"sampler":0,
			"source":2
		},
		{
			"sampler":0,
			"source":0
		},
		{
			"sampler":0,
			"source":1
		},
		{
			"sampler":0,
			"source":2
		},
		{
			"sampler":0,
			"source":0
		},
		{
			"sampler":0,
			"source":1
		},
		{
			"sampler":0,
			"source":2
		}
	],
	"images":[
		{
			"mimeType":"image/jpeg",
			"name":"modular_wooden_pier_planks_nor_gl_4k",
			"uri":"modular_wooden_pier_planks_nor_gl_4k.jpg"
		},
		{
			"mimeType":"image/jpeg",
			"name":"modular_wooden_pier_planks_diff_4k",
			"uri":"modular_wooden_pier_planks_diff_4k.jpg"
		},
		{
			"mimeType":"image/jpeg",
			"name":"modular_wooden_pier_planks_arm_4k",
			"uri":"modular_wooden_pier_planks_arm_4k.jpg"
		}
	],
	"accessors":[
		{
			"bufferView":0,
			"componentType":5126,
			"count":19825,
			"max":[
				1.1858484745025635,
				0.2285454273223877,
				6.056446552276611
			],
			"min":[
				-1.2059885263442993,
				-0.050629422068595886,
				-6.335997104644775
			],
			"type":"VEC3"
		},
		{
			"bufferView":1,
			"componentType":5126,
			"count":19825,
			"type":"VEC3"
		},
		{
			"bufferView":2,
			"componentType":5126,
			"count":19825,
			"type":"VEC2"
		},
		{
			"bufferView":3,
			"componentType":5126,
			"count":19825,
			"type":"VEC3"
		},
		{
			"bufferView":4,
			"componentType":5123,
			"count":87873,
			"type":"SCALAR"
		},
		{
			"bufferView":5,
			"componentType":5126,
			"count":7815,
			"max":[
				1.1754858493804932,
				0.9427189826965332,
				2.4177730083465576
			],
			"min":[
				-1.2102528810501099,
				-1.0420539379119873,
				-2.316324472427368
			],
			"type":"VEC3"
		},
		{
			"bufferView":6,
			"componentType":5126,
			"count":7815,
			"type":"VEC3"
		},
		{
			"bufferView":7,
			"componentType":5126,
			"count":7815,
			"type":"VEC2"
		},
		{
			"bufferView":8,
			"componentType":5126,
			"count":7815,
			"type":"VEC3"
		},
		{
			"bufferView":9,
			"componentType":5123,
			"count":34572,
			"type":"SCALAR"
		},
		{
			"bufferView":10,
			"componentType":5126,
			"count":12602,
			"max":[
				1.1858484745025635,
				0.2285454273223877,
				6.056446552276611
			],
			"min":[
				-1.181357741355896,
				0.15229296684265137,
				-1.7437779903411865
			],
			"type":"VEC3"
		},
		{
			"bufferView":11,
			"componentType":5126,
			"count":12602,
			"type":"VEC3"
		},
		{
			"bufferView":12,
			"componentType":5126,
			"count":12602,
			"type":"VEC2"
		},
		{
			"bufferView":13,
			"componentType":5126,
			"count":12602,
			"type":"VEC3"
		},
		{
			"bufferView":14,
			"componentType":5123,
			"count":55917,
			"type":"SCALAR"
		}
	],
	"bufferViews":[
		{
			"buffer":0,
			"byteLength":237900,
			"byteOffset":0,
			"target":34962
		},
		{
			"buffer":0,
			"byteLength":237900,
			"byteOffset":237900,
			"target":34962
		},
		{
			"buffer":0,
			"byteLength":158600,
			"byteOffset":475800,
			"target":34962
		},
		{
			"buffer":0,
			"byteLength":237900,
			"byteOffset":634400,
			"target":34962
		},
		{
			"buffer":0,
			"byteLength":175746,
			"byteOffset":872300,
			"target":34963
		},
		{
			"buffer":0,
			"byteLength":93780,
			"byteOffset":1048048,
			"target":34962
		},
		{
			"buffer":0,
			"byteLength":93780,
			"byteOffset":1141828,
			"target":34962
		},
		{
			"buffer":0,
			"byteLength":62520,
			"byteOffset":1235608,
			"target":34962
		},
		{
			"buffer":0,
			"byteLength":93780,
			"byteOffset":1298128,
			"target":34962
		},
		{
			"buffer":0,
			"byteLength":69144,
			"byteOffset":1391908,
			"target":34963
		},
		{
			"buffer":0,
			"byteLength":151224,
			"byteOffset":1461052,
			"target":34962
		},
		{
			"buffer":0,
			"byteLength":151224,
			"byteOffset":1612276,
			"target":34962
		},
		{
			"buffer":0,
			"byteLength":100816,
			"byteOffset":1763500,
			"target":34962
		},
		{
			"buffer":0,
			"byteLength":151224,
			"byteOffset":1864316,
			"target":34962
		},
		{
			"buffer":0,
			"byteLength":111834,
			"byteOffset":2015540,
			"target":34963
		}
	],
	"samplers":[
		{
			"magFilter":9729,
			"minFilter":9987
		}
	],
	"buffers":[
		{
			"byteLength":2127376,
			"uri":"fence.bin"
		}
	]
}
